<svg xmlns="http://www.w3.org/2000/svg" width="32" height="32" viewBox="0 0 24 24"><style>@media (prefers-color-scheme:dark){path{fill:#444}}</style><path d="M19.6 21.6L12 14l-2.35 2.35q.2.375.275.8T10 18q0 1.65-1.175 2.825T6 22q-1.65 0-2.825-1.175T2 18q0-1.65 1.175-2.825T6 14q.425 0 .85.075t.8.275L10 12 7.65 9.65q-.375.2-.8.275T6 10q-1.65 0-2.825-1.175T2 6q0-1.65 1.175-2.825T6 2q1.65 0 2.825 1.175T10 6q0 .425-.075.85t-.275.8L21.6 19.6q.425.425.425 1t-.425 1q-.425.425-1 .425t-1-.425zM15 11l-2-2 6.6-6.6q.425-.425 1-.425t1 .425q.425.425.425 1t-.425 1L15 11zM6 8q.825 0 1.413-.588T8 6q0-.825-.588-1.413T6 4q-.825 0-1.413.588T4 6q0 .825.588 1.413T6 8zm6 4.5q.225 0 .363-.138T12.5 12q0-.225-.138-.363T12 11.5q-.225 0-.363.138T11.5 12q0 .225.138.363T12 12.5zM6 20q.825 0 1.413-.588T8 18q0-.825-.588-1.413T6 16q-.825 0-1.413.588T4 18q0 .825.588 1.413T6 20z"/></svg>